<?xml version="1.0" standalone="no"?>
<!DOCTYPE svg PUBLIC "-//W3C//DTD SVG 20010904//EN"
 "http://www.w3.org/TR/2001/REC-SVG-20010904/DTD/svg10.dtd">
<svg version="1.0" xmlns="http://www.w3.org/2000/svg"
 width="193.000000pt" height="57.000000pt" viewBox="0 0 193.000000 57.000000"
 preserveAspectRatio="xMidYMid meet">
<metadata>
Created by potrace 1.16, written by Peter Selinger 2001-2019
</metadata>
<g transform="translate(0.000000,57.000000) scale(0.100000,-0.100000)"
fill="#000000" stroke="none">
<path d="M1386 464 c-9 -8 -16 -26 -16 -40 0 -13 -4 -24 -10 -24 -5 0 -10 -9
-10 -20 0 -11 5 -20 10 -20 6 0 10 -22 10 -50 0 -43 3 -50 20 -50 17 0 20 7
20 50 0 38 4 50 15 50 8 0 15 8 16 18 0 9 13 -10 28 -43 l28 -60 -18 -37 c-23
-46 -23 -48 0 -48 13 0 31 26 65 96 25 53 46 100 46 105 0 5 -8 9 -18 9 -13 0
-24 -14 -36 -42 l-17 -43 -19 43 c-17 38 -22 42 -55 42 -28 0 -35 4 -35 19 0
10 7 21 15 25 22 8 18 36 -4 36 -11 0 -27 -7 -35 -16z"/>
<path d="M310 350 c0 -27 4 -49 9 -47 15 4 121 -57 121 -70 0 -18 -7 -17 -67
17 -60 34 -63 35 -63 18 0 -13 115 -78 138 -78 8 0 12 22 12 69 l0 69 -69 36
c-38 20 -72 36 -75 36 -3 0 -6 -22 -6 -50z"/>
<path d="M660 294 c0 -86 3 -104 15 -104 11 0 15 11 15 40 0 37 1 39 23 31 51
-19 107 41 88 92 -13 34 -39 47 -95 45 l-46 -1 0 -103z"/>
<path d="M980 329 c0 -62 2 -69 20 -69 17 0 20 7 20 51 0 43 3 50 18 47 13 -2
18 -15 20 -51 3 -39 6 -47 23 -47 16 0 19 7 19 44 0 52 22 79 39 47 6 -11 11
-36 11 -55 0 -25 4 -36 15 -36 19 0 22 112 3 128 -7 5 -52 10 -100 10 l-88 0
0 -69z"/>
</g>
</svg>
