<?xml version="1.0" encoding="UTF-8"?>
<svg version="1.1" xmlns="http://www.w3.org/2000/svg" width="193" height="57">
<path d="M0 0 C0.76441406 -0.020625 1.52882813 -0.04125 2.31640625 -0.0625 C6.96001054 -0.09458017 9.99128642 0.22607253 13.75 3.25 C16.21457267 6.946859 16.42738914 9.9598688 15.75 14.25 C13.8072272 17.63186376 12.75642921 18.95264591 9 20.0625 C8.2575 20.124375 7.515 20.18625 6.75 20.25 C6.75 22.23 6.75 24.21 6.75 26.25 C2.89974121 25.64644592 -0.11101159 24.48227397 -3.5625 22.6875 C-4.44550781 22.23246094 -5.32851563 21.77742188 -6.23828125 21.30859375 C-6.90214844 20.95925781 -7.56601562 20.60992187 -8.25 20.25 C-8.44594676 17.10463232 -8.6303401 13.95869386 -8.8125 10.8125 C-8.86857422 9.91466797 -8.92464844 9.01683594 -8.98242188 8.09179688 C-9.03076172 7.23779297 -9.07910156 6.38378906 -9.12890625 5.50390625 C-9.1760376 4.71314697 -9.22316895 3.9223877 -9.27172852 3.10766602 C-9.21673017 -1.59438339 -3.50055853 0.02314419 0 0 Z " fill="#FCC6CA" transform="translate(39.25,11.75)"/>
<path d="M0 0 C-0.33 1.32 -0.66 2.64 -1 4 C-1.66 4 -2.32 4 -3 4 C-3 5.32 -3 6.64 -3 8 C-0.69 8 1.62 8 4 8 C5.32 10.31 6.64 12.62 8 15 C8.99 12.69 9.98 10.38 11 8 C12.32 8 13.64 8 15 8 C14.38367054 12.95998472 12.20164371 16.93671966 9.9375 21.3125 C9.56044922 22.05306641 9.18339844 22.79363281 8.79492188 23.55664062 C7.86871843 25.37387522 6.93509371 27.18732404 6 29 C4.68 29 3.36 29 2 29 C3 26 4 23 5 20 C4.24896668 17.67404615 4.24896668 17.67404615 3.0625 15.3125 C2.68222656 14.50425781 2.30195313 13.69601563 1.91015625 12.86328125 C1.60980469 12.24839844 1.30945313 11.63351563 1 11 C-0.32 11.33 -1.64 11.66 -3 12 C-3 15.3 -3 18.6 -3 22 C-4.32 22 -5.64 22 -7 22 C-7 18.7 -7 15.4 -7 12 C-7.66 12 -8.32 12 -9 12 C-9 10.68 -9 9.36 -9 8 C-8.34 8 -7.68 8 -7 8 C-6.87625 6.865625 -6.7525 5.73125 -6.625 4.5625 C-6.41875 3.386875 -6.2125 2.21125 -6 1 C-4 0 -4 0 0 0 Z " fill="#CB385B" transform="translate(144,9)"/>
<path d="M0 0 C4.95 2.64 9.9 5.28 15 8 C15 12.62 15 17.24 15 22 C4.22677737 19.84535547 4.22677737 19.84535547 0 16 C-1.54945684 10.64733091 -1.76816514 5.30449543 0 0 Z " fill="#D04365" transform="translate(31,16)"/>
<path d="M0 0 C2.95857409 -0.05379226 5.91617721 -0.09357093 8.875 -0.125 C9.71675781 -0.14175781 10.55851562 -0.15851562 11.42578125 -0.17578125 C12.23144531 -0.18222656 13.03710938 -0.18867188 13.8671875 -0.1953125 C14.98262939 -0.21102295 14.98262939 -0.21102295 16.12060547 -0.22705078 C18 0 18 0 20 2 C20.1953125 4.8203125 20.1953125 4.8203125 20.125 8.125 C20.10695313 9.22070312 20.08890625 10.31640625 20.0703125 11.4453125 C20.04710938 12.28835937 20.02390625 13.13140625 20 14 C19.01 14 18.02 14 17 14 C16.34 10.7 15.68 7.4 15 4 C14.01 4.495 14.01 4.495 13 5 C12.53348793 7.12576782 12.53348793 7.12576782 12.375 9.5625 C12.30023438 10.38878906 12.22546875 11.21507812 12.1484375 12.06640625 C12.09945312 12.70449219 12.05046875 13.34257812 12 14 C10.68 14 9.36 14 8 14 C7.67 11.03 7.34 8.06 7 5 C6.01 4.67 5.02 4.34 4 4 C4 7.3 4 10.6 4 14 C2.68 14 1.36 14 0 14 C0 9.38 0 4.76 0 0 Z " fill="#CE395C" transform="translate(98,17)"/>
<path d="M0 0 C10 0 10 0 14 3 C15.2622587 6.19772205 15.20854002 7.50182107 13.875 10.6875 C11.7188009 13.34681222 10.30049349 14.17487663 7 15 C6.01 14.67 5.02 14.34 4 14 C3.67 16.31 3.34 18.62 3 21 C2.01 21 1.02 21 0 21 C0 14.07 0 7.14 0 0 Z M4 4 C3.30840599 5.84725052 3.30840599 5.84725052 3 8 C3.99 9.485 3.99 9.485 5 11 C6.65 10.67 8.3 10.34 10 10 C11.01111093 6.95086772 11.01111093 6.95086772 10 4 C8.02 4 6.04 4 4 4 Z " fill="#D63459" transform="translate(66,17)"/>
<path d="M0 0 C2 3 2 3 2 6 C-0.97 6.66 -3.94 7.32 -7 8 C-7 8.66 -7 9.32 -7 10 C-4.23723823 9.47731534 -1.6739124 8.89130413 1 8 C1.33 8.99 1.66 9.98 2 11 C-0.91056403 13.14012061 -2.46198354 14.01076033 -6.125 13.9375 C-9 13 -9 13 -10.9375 11.375 C-12.49800943 7.88680246 -11.99154664 5.63567102 -11 2 C-7.80680058 -1.93009159 -4.61385107 -1.19618361 0 0 Z M-6 2 C-6.99 3.485 -6.99 3.485 -8 5 C-6.02 4.67 -4.04 4.34 -2 4 C-3.32 3.34 -4.64 2.68 -6 2 Z " fill="#D5355B" transform="translate(132,18)"/>
<path d="M0 0 C1.44375 0.12375 2.8875 0.2475 4.375 0.375 C5.59316406 0.47941406 5.59316406 0.47941406 6.8359375 0.5859375 C9 1 9 1 11 3 C11.1953125 5.3828125 11.1953125 5.3828125 11.125 8.125 C11.10695313 9.03507812 11.08890625 9.94515625 11.0703125 10.8828125 C11.04710938 11.58148438 11.02390625 12.28015625 11 13 C10.34 13 9.68 13 9 13 C8.67 10.36 8.34 7.72 8 5 C6.68 4.67 5.36 4.34 4 4 C4 7.3 4 10.6 4 14 C2.68 14 1.36 14 0 14 C0 9.38 0 4.76 0 0 Z " fill="#D63359" transform="translate(98,17)"/>
<path d="M0 0 C1.65 0 3.3 0 5 0 C5 0.66 5 1.32 5 2 C6.32 2.33 7.64 2.66 9 3 C8.67 4.32 8.34 5.64 8 7 C9.32 7 10.64 7 12 7 C12.33 6.01 12.66 5.02 13 4 C13 7.96 13 11.92 13 16 C12.34 14.68 11.68 13.36 11 12 C8.38622957 10.22289539 8.38622957 10.22289539 5.375 8.75 C3.87066406 7.96882813 3.87066406 7.96882813 2.3359375 7.171875 C1.56507812 6.78515625 0.79421875 6.3984375 0 6 C0 4.02 0 2.04 0 0 Z " fill="#EF2254" transform="translate(33,21)"/>
<path d="M0 0 C2.64 0 5.28 0 8 0 C8 1.32 8 2.64 8 4 C7.01 4.33 6.02 4.66 5 5 C4.67 7.97 4.34 10.94 4 14 C2.68 14 1.36 14 0 14 C0 9.38 0 4.76 0 0 Z " fill="#C43E5C" transform="translate(82,17)"/>
<path d="M0 0 C3.3 0 6.6 0 10 0 C8.02 0.99 8.02 0.99 6 2 C6.99 2.66 7.98 3.32 9 4 C7.35 4 5.7 4 4 4 C2.14223235 7.13498292 1.79859524 9.37471432 2 13 C2.33 13 2.66 13 3 13 C3 15.64 3 18.28 3 21 C2.01 21 1.02 21 0 21 C0 14.07 0 7.14 0 0 Z " fill="#CC3C5F" transform="translate(66,17)"/>
<path d="M0 0 C1.32 0 2.64 0 4 0 C4 4.62 4 9.24 4 14 C2.68 14 1.36 14 0 14 C0 9.38 0 4.76 0 0 Z " fill="#D63558" transform="translate(92,17)"/>
<path d="M0 0 C-0.33 1.32 -0.66 2.64 -1 4 C-2.32 3.34 -3.64 2.68 -5 2 C-5.33 4.31 -5.66 6.62 -6 9 C-6.66 9 -7.32 9 -8 9 C-8 9.66 -8 10.32 -8 11 C-7.34 11 -6.68 11 -6 11 C-6 13.97 -6 16.94 -6 20 C-5.34 20 -4.68 20 -4 20 C-4 17.36 -4 14.72 -4 12 C-3.67 12 -3.34 12 -3 12 C-3 15.3 -3 18.6 -3 22 C-4.32 22 -5.64 22 -7 22 C-7 18.7 -7 15.4 -7 12 C-7.66 12 -8.32 12 -9 12 C-9 10.68 -9 9.36 -9 8 C-8.34 8 -7.68 8 -7 8 C-6.87625 6.865625 -6.7525 5.73125 -6.625 4.5625 C-6.41875 3.386875 -6.2125 2.21125 -6 1 C-4 0 -4 0 0 0 Z " fill="#C64A67" transform="translate(144,9)"/>
<path d="M0 0 C0.99 0.33 1.98 0.66 3 1 C2.34 2.98 1.68 4.96 1 7 C1.99 7 2.98 7 4 7 C4 7.66 4 8.32 4 9 C3.01 9.495 3.01 9.495 2 10 C1.53476937 11.89533342 1.53476937 11.89533342 1.375 14.0625 C1.189375 16.0115625 1.189375 16.0115625 1 18 C0.34 18 -0.32 18 -1 18 C-1 15.03 -1 12.06 -1 9 C-1.66 9 -2.32 9 -3 9 C-3 8.34 -3 7.68 -3 7 C-2.34 7 -1.68 7 -1 7 C-0.67 4.69 -0.34 2.38 0 0 Z " fill="#E32957" transform="translate(139,11)"/>
<path d="M0 0 C0.33 0 0.66 0 1 0 C1 3.96 1 7.92 1 12 C0.34 10.68 -0.32 9.36 -1 8 C-3.38522941 6.44554733 -3.38522941 6.44554733 -6.125 5.25 C-7.03507812 4.82203125 -7.94515625 4.3940625 -8.8828125 3.953125 C-9.93082031 3.48132813 -9.93082031 3.48132813 -11 3 C-7.85466353 2.1135273 -6.14185588 2.08784829 -3 3 C-2.01 3 -1.02 3 0 3 C0 2.01 0 1.02 0 0 Z " fill="#DF325A" transform="translate(45,25)"/>
<path d="M0 0 C3.3 1.65 6.6 3.3 10 5 C9.67 6.32 9.34 7.64 9 9 C7.02 9.33 5.04 9.66 3 10 C3.66 9.67 4.32 9.34 5 9 C5 7.68 5 6.36 5 5 C4.01 4.67 3.02 4.34 2 4 C2 3.34 2 2.68 2 2 C1.34 2 0.68 2 0 2 C0 1.34 0 0.68 0 0 Z " fill="#DC3B60" transform="translate(36,19)"/>
<path d="M0 0 C4.23429756 1.31061591 8.07407404 2.94356259 12 5 C12 5.99 12 6.98 12 8 C7.39571066 6.68448876 3.81679612 4.90803514 0 2 C0 1.34 0 0.68 0 0 Z " fill="#FEAEBF" transform="translate(32,27)"/>
<path d="M0 0 C4.70588235 0.70588235 4.70588235 0.70588235 6 2 C6.07205511 3.68608966 6.08386068 5.37500659 6.0625 7.0625 C6.05347656 7.98160156 6.04445313 8.90070312 6.03515625 9.84765625 C6.02355469 10.55792969 6.01195313 11.26820312 6 12 C5.34 12 4.68 12 4 12 C3.65820312 8.97265625 3.65820312 8.97265625 3.31640625 5.9453125 C3.08707039 3.92595684 3.08707039 3.92595684 2 2 C1.01 1.67 0.02 1.34 -1 1 C-0.67 0.67 -0.34 0.34 0 0 Z " fill="#E72850" transform="translate(103,18)"/>
<path d="M0 0 C1.98 0 3.96 0 6 0 C6 0.66 6 1.32 6 2 C5.01 2.33 4.02 2.66 3 3 C2.67 5.97 2.34 8.94 2 12 C1.34 12 0.68 12 0 12 C0 8.04 0 4.08 0 0 Z " fill="#E92755" transform="translate(83,18)"/>
<path d="M0 0 C0.66 0.99 1.32 1.98 2 3 C-1.08559304 5.26881841 -2.42209376 6.05451946 -6.3125 5.6875 C-7.199375 5.460625 -8.08625 5.23375 -9 5 C-8.34 4.67 -7.68 4.34 -7 4 C-7 3.34 -7 2.68 -7 2 C-6.21625 1.855625 -5.4325 1.71125 -4.625 1.5625 C-2.03578982 1.12201075 -2.03578982 1.12201075 0 0 Z " fill="#CC3B5F" transform="translate(132,26)"/>
<path d="M0 0 C2 2 2 2 2.375 5.8125 C2.29926621 9.97028498 0.96605135 12.03394865 -2 15 C-2.66 14.67 -3.32 14.34 -4 14 C-3.34 12.989375 -2.68 11.97875 -2 10.9375 C0.15499716 7.21937109 0.35190572 4.31084509 0 0 Z " fill="#F7D2D6" transform="translate(53,16)"/>
<path d="M0 0 C2.5 1.375 2.5 1.375 5 3 C5 3.66 5 4.32 5 5 C4.01 5 3.02 5 2 5 C2 6.65 2 8.3 2 10 C1.34 9.67 0.68 9.34 0 9 C-0.85056945 5.44307323 -1.16909807 3.50729422 0 0 Z " fill="#DE385D" transform="translate(31,16)"/>
<path d="M0 0 C0.66 1.32 1.32 2.64 2 4 C1.67 4.99 1.34 5.98 1 7 C1.66 7 2.32 7 3 7 C2.25 11.75 2.25 11.75 0 14 C0 9.38 0 4.76 0 0 Z " fill="#E42853" transform="translate(67,18)"/>
<path d="M0 0 C1.134375 0.020625 2.26875 0.04125 3.4375 0.0625 C3.4375 0.7225 3.4375 1.3825 3.4375 2.0625 C2.4784375 2.495625 2.4784375 2.495625 1.5 2.9375 C-0.71456079 3.89073451 -0.71456079 3.89073451 -1.5625 6.0625 C-2.5525 4.4125 -3.5425 2.7625 -4.5625 1.0625 C-3.5625 0.0625 -3.5625 0.0625 0 0 Z " fill="#CCA9AE" transform="translate(34.5625,11.9375)"/>
<path d="M0 0 C1.32 0 2.64 0 4 0 C4 1.98 4 3.96 4 6 C3.01 6.33 2.02 6.66 1 7 C0.67 4.69 0.34 2.38 0 0 Z " fill="#E42B54" transform="translate(150,24)"/>
<path d="M0 0 C0.99 0.33 1.98 0.66 3 1 C3 2.32 3 3.64 3 5 C1.68 5 0.36 5 -1 5 C-0.67 3.35 -0.34 1.7 0 0 Z " fill="#C03F5C" transform="translate(93,10)"/>
<path d="M0 0 C1.32 0.33 2.64 0.66 4 1 C4 1.99 4 2.98 4 4 C2.02 4.33 0.04 4.66 -2 5 C-1.34 4.67 -0.68 4.34 0 4 C0 2.68 0 1.36 0 0 Z " fill="#F6557C" transform="translate(41,24)"/>
<path d="M0 0 C-0.33 1.32 -0.66 2.64 -1 4 C-2.32 3.34 -3.64 2.68 -5 2 C-5 2.66 -5 3.32 -5 4 C-5.66 3.67 -6.32 3.34 -7 3 C-4.49955934 -0.00052879 -4.2621484 0 0 0 Z " fill="#C33E5B" transform="translate(144,9)"/>
</svg>
